<?xml version="1.0" encoding="UTF-8"?>
<svg id="Camada_2" data-name="Camada 2" xmlns="http://www.w3.org/2000/svg" viewBox="0 0 354.5 354.5">
  <defs>
    <style>
      .cls-1 {
        fill: #fff;
      }

      .cls-2 {
        fill: #ba0000;
      }
    </style>
  </defs>
  <g id="Quadrado">
    <rect class="cls-2" width="354.5" height="354.5" rx="50" ry="50"/>
  </g>
  <g id="Camada_1-2" data-name="Camada 1">
    <g>
      <path class="cls-1" d="M149.75,56.25H52.25v70h96.58c33.2,0,60.9,26.36,61.41,59.56.52,33.79-26.82,61.44-60.49,61.44h-27.5v-26h45.11v-70H52.25v166h97.5c71.96,0,130.5-58.54,130.5-130.5,0-.03,0-.07,0-.1,0-6.28-2.58-12.29-7.03-16.73l-106.64-106.64c-4.44-4.44-10.45-7.02-16.73-7.03-.03,0-.07,0-.1,0Z"/>
      <circle class="cls-1" cx="262.25" cy="77.25" r="40"/>
    </g>
  </g>
</svg>