<?xml version="1.0" encoding="utf-8"?>
<!DOCTYPE svg PUBLIC "-//W3C//DTD SVG 1.0//EN" "http://www.w3.org/TR/2001/REC-SVG-20010904/DTD/svg10.dtd">
<svg version="1.0" xmlns="http://www.w3.org/2000/svg" width="500px" height="500px" viewBox="0 0 500 500" preserveAspectRatio="xMidYMid meet">
 <g fill="#ba0000">
  <path d="M 67.5 479 c -11.5 -1.6 -21.2 -6.7 -29.5 -15.6 -5.8 -6.2 -8.2 -10.3 -11.2 -18.4 -2.3 -6.5 -2.3 -6.5 -2.3 -195 0 -188.5 0 -188.5 2.3 -195 3 -8.3 5.4 -12.2 11.5 -18.7 6.1 -6.4 12.2 -10.4 20.7 -13.5 6.5 -2.3 6.5 -2.3 191 -2.3 184.5 0 184.5 0 191 2.3 8.5 3.1 14.6 7.1 20.7 13.5 6.1 6.5 8.5 10.4 11.5 18.7 2.3 6.5 2.3 6.5 2.3 195 0 188.5 0 188.5 -2.3 195 -3.1 8.5 -7.1 14.6 -13.5 20.7 -6.5 6.1 -10.4 8.5 -18.7 11.5 -6.5 2.3 -6.5 2.3 -187 2.4 -99.3 0.1 -183.2 -0.2 -186.5 -0.6 z  m 160.7 -55.5 c 63.7 -8.4 116.1 -51.8 136.2 -112.5 6.3 -19.2 9.5 -42 8.2 -58.1 -0.8 -8.6 -0.8 -8.6 -73.5 -81.3 -72.7 -72.7 -72.7 -72.7 -83.7 -73.3 -6 -0.3 -33.3 -0.2 -60.6 0.2 -49.8 0.7 -49.8 0.7 -49.8 19.5 0 10.3 0.3 26.9 0.7 36.9 0.6 18.2 0.6 18.2 60.7 17.9 59.6 -0.3 60.2 -0.3 68.1 1.9 24.5 6.9 44.8 23.6 55.5 45.8 7.3 15.1 8.5 20.9 8.5 41 0 20.2 -1.2 26 -8.5 41 -11.1 22.7 -31 39.1 -55.5 45.7 -11.1 3 -37.4 3.1 -48 0.2 -7 -1.9 -7 -1.9 -7.3 -26.1 -0.2 -24.3 -0.2 -24.3 -37.2 -24.3 -37 0 -37 0 -37 44.3 0 44.2 0 44.2 12.3 52.2 37.3 24.4 74 34 110.9 29 z  M393.9 111.4 C 393.9 91.3 377.6 75 357.5 75 337.3 75 321 91.3 321 111.4 321 131.6 337.3 147.9 357.5 147.9 377.6 147.9 393.9 131.6 393.9 111.4 Z M369 146.1 "/>
 </g>
 <g fill="#fdfdfd">
  <path d="M 191 426.9 c -27.6 -3.5 -50.6 -12.4 -76.7 -29.4 -12.3 -8 -12.3 -8 -12.3 -55.2 0 -47.3 0 -47.3 40 -47.3 40 0 40 0 40.2 24.3 0.3 24.2 0.3 24.2 7.3 26.1 10.3 2.8 31.2 2.7 42 -0.2 24.5 -6.6 44.4 -23 55.5 -45.7 6.9 -14.3 8.5 -21.1 8.5 -38 0 -16.8 -1.5 -23.6 -8.5 -38 -10.7 -22.2 -31 -38.9 -55.5 -45.8 -7.9 -2.2 -8.5 -2.2 -68.1 -1.9 -60.1 0.3 -60.1 0.3 -60.7 -17.9 -0.4 -10 -0.7 -28 -0.7 -39.9 0 -21.8 0 -21.8 49.8 -22.5 86.1 -1.3 66.2 -11 150.4 73.2 72.9 72.9 72.9 72.9 73.5 85.9 2.5 58.4 -25.4 113.1 -74.7 146.1 -31.1 20.8 -73.5 30.9 -110 26.2 z "/>
  <path d="M397.8 111.5 C 397.8 133.7 379.8 151.8 357.5 151.8 335.3 151.8 317.2 133.7 317.2 111.5 317.2 89.2 335.3 71.2 357.5 71.2 379.8 71.2 397.8 89.2 397.8 111.5 Z M345.5 150 "/>
 </g>
</svg>